HIERARCHY
ROOT Hips
{
	OFFSET -1.602300 6.242603 43.997101
	CHANNELS 6 Xposition Yposition Zposition Zrotation Xrotation Yrotation
	JOINT Chest
	{
		OFFSET -0.204900 1.598101 7.917301
		CHANNELS 6 Xposition Yposition Zposition Zrotation Xrotation Yrotation
		JOINT Chest2
		{
			OFFSET 0.000000 0.000000 3.404099
			CHANNELS 6 Xposition Yposition Zposition Zrotation Xrotation Yrotation
			JOINT Neck
			{
				OFFSET 0.000000 0.000000 7.928600
				CHANNELS 6 Xposition Yposition Zposition Zrotation Xrotation Yrotation
				JOINT Head
				{
					OFFSET 0.000000 0.000000 2.173897
					CHANNELS 6 Xposition Yposition Zposition Zrotation Xrotation Yrotation
					End Site
					{
						OFFSET 0.000000 0.000001 10.404503
					}
				}
			}
			JOINT LeftCollar
			{
				OFFSET 2.833800 -1.396299 4.843300
				CHANNELS 6 Xposition Yposition Zposition Zrotation Xrotation Yrotation
				JOINT LeftShoulder
				{
					OFFSET 4.363600 0.000000 0.000000
					CHANNELS 6 Xposition Yposition Zposition Zrotation Xrotation Yrotation
					JOINT LeftElbow
					{
						OFFSET 0.000000 -0.000001 -10.306900
						CHANNELS 6 Xposition Yposition Zposition Zrotation Xrotation Yrotation
						JOINT LeftWrist
						{
							OFFSET 0.000000 -0.000001 -12.404900
							CHANNELS 6 Xposition Yposition Zposition Zrotation Xrotation Yrotation
							End Site
							{
								OFFSET 0.000000 0.000000 -2.173901
							}
						}
					}
				}
			}
			JOINT RightCollar
			{
				OFFSET -2.354800 -1.897200 5.063099
				CHANNELS 6 Xposition Yposition Zposition Zrotation Xrotation Yrotation
				JOINT RightShoulder
				{
					OFFSET -4.375800 0.000000 0.000000
					CHANNELS 6 Xposition Yposition Zposition Zrotation Xrotation Yrotation
					JOINT RightElbow
					{
						OFFSET 0.000000 -0.000001 -10.005001
						CHANNELS 6 Xposition Yposition Zposition Zrotation Xrotation Yrotation
						JOINT RightWrist
						{
							OFFSET 0.000000 -0.000001 -13.174900
							CHANNELS 6 Xposition Yposition Zposition Zrotation Xrotation Yrotation
							End Site
							{
								OFFSET 0.000000 0.000000 -2.173901
							}
						}
					}
				}
			}
		}
	}
	JOINT LeftHip
	{
		OFFSET 2.240600 0.386800 -2.614101
		CHANNELS 6 Xposition Yposition Zposition Zrotation Xrotation Yrotation
		JOINT LeftKnee
		{
			OFFSET 0.000000 -0.000001 -18.592899
			CHANNELS 6 Xposition Yposition Zposition Zrotation Xrotation Yrotation
			JOINT LeftAnkle
			{
				OFFSET 0.000000 -0.000001 -18.765800
				CHANNELS 6 Xposition Yposition Zposition Zrotation Xrotation Yrotation
				End Site
				{
					OFFSET 0.000000 -8.655000 0.000000
				}
			}
		}
	}
	JOINT RightHip
	{
		OFFSET -2.014900 -0.220900 -2.615898
		CHANNELS 6 Xposition Yposition Zposition Zrotation Xrotation Yrotation
		JOINT RightKnee
		{
			OFFSET 0.000000 -0.000001 -18.633900
			CHANNELS 6 Xposition Yposition Zposition Zrotation Xrotation Yrotation
			JOINT RightAnkle
			{
				OFFSET 0.000000 -0.000001 -18.285101
				CHANNELS 6 Xposition Yposition Zposition Zrotation Xrotation Yrotation
				End Site
				{
					OFFSET 0.000000 -7.524500 0.000000
				}
			}
		}
	}
}
MOTION
Frames: 4
Frame Time: 0.041667
5.745499 7.921504 42.733204 -1.774833 1.585819 -3.638623 -0.204899 1.598096 7.917309 2.156936 -1.760040 1.300338 -0.000000 -0.000002 3.404100 -0.250019 -1.754173 -0.102410 -0.000000 -0.000000 7.928599 3.044553 5.929506 1.610171 -0.000000 0.000002 2.173898 -0.999422 -0.836938 -0.465319 2.833801 -1.396301 4.843302 -5.596420 5.944563 5.896741 4.363600 0.000007 0.000000 -54.660583 -15.943241 -63.940215 0.000002 0.000000 -10.306911 -166.404732 -116.453428 -143.075579 0.000001 0.000014 -12.404905 -75.209713 163.743376 -92.800243 -2.354800 -1.897199 5.063104 19.716524 8.832342 6.051949 -4.375796 0.000003 0.000001 42.708736 -15.479710 44.076105 -0.000013 0.000006 -10.004999 -19.067530 -26.618412 -36.889797 -0.000006 -0.000004 -13.174892 -12.050872 -6.708161 -16.031069 2.240601 0.386798 -2.614099 -1.285746 -9.553843 -0.531828 -0.000002 0.000000 -18.592903 7.382194 29.772603 16.749082 -0.000001 0.000000 -18.765800 12.686952 2.631144 0.209891 -2.014897 -0.220901 -2.615896 -56.273601 -42.291230 -2.521608 -0.000000 0.000006 -18.633894 52.824475 61.025049 -44.526157 0.000005 0.000004 -18.285099 -1.677084 39.907634 -24.480443
5.748499 7.926005 42.735107 -1.764139 1.603591 -3.636020 -0.204900 1.598104 7.917308 2.142540 -1.734183 1.315038 -0.000001 -0.000000 3.404097 -0.265000 -1.773027 -0.107453 0.000000 -0.000001 7.928604 3.119237 5.875694 1.534920 -0.000001 0.000001 2.173891 -1.042365 -0.836755 -0.434648 2.833801 -1.396302 4.843305 -5.618127 5.926846 5.894945 4.363599 0.000008 0.000008 -54.638423 -15.865232 -63.997226 -0.000000 0.000006 -10.306907 -166.246080 -116.388732 -142.940765 -0.000001 0.000005 -12.404902 -75.188894 163.717039 -92.930297 -2.354800 -1.897202 5.063107 19.758277 8.806800 6.008103 -4.375795 0.000008 0.000005 42.650081 -15.469501 44.137714 -0.000009 0.000005 -10.004998 -18.992232 -26.654682 -36.895924 -0.000003 -0.000005 -13.174891 -12.025393 -6.717883 -16.228806 2.240601 0.386805 -2.614094 -1.294394 -9.572752 -0.524496 -0.000001 0.000001 -18.592894 7.473824 29.781339 16.706364 -0.000001 -0.000002 -18.765797 12.618638 2.629187 0.128634 -2.014895 -0.220896 -2.615892 -56.133978 -42.275838 -2.435118 0.000000 0.000007 -18.633892 52.826097 60.929126 -44.610954 0.000004 0.000004 -18.285101 -1.779866 39.832154 -24.526537
5.751099 7.929405 42.737408 -1.751169 1.617299 -3.627113 -0.204900 1.598100 7.917313 2.126471 -1.714636 1.320027 0.000000 -0.000002 3.404102 -0.273330 -1.795096 -0.110513 0.000001 0.000000 7.928604 3.177571 5.838150 1.470438 0.000000 0.000001 2.173914 -1.078626 -0.840072 -0.403543 2.833802 -1.396301 4.843305 -5.715389 5.933969 5.918872 4.363599 0.000006 0.000006 -54.567283 -15.758928 -64.081613 -0.000002 0.000002 -10.306900 -166.018498 -116.332164 -142.786717 -0.000004 0.000005 -12.404903 -75.188184 163.661523 -93.115525 -2.354798 -1.897199 5.063108 19.841256 8.811264 5.921045 -4.375794 0.000006 -0.000002 42.559100 -15.440044 44.238630 -0.000007 0.000005 -10.005002 -18.948468 -26.683167 -36.909830 -0.000004 -0.000003 -13.174900 -11.984491 -6.730103 -16.427121 2.240600 0.386801 -2.614097 -1.306670 -9.587796 -0.524301 -0.000001 0.000000 -18.592901 7.542298 29.788654 16.673673 -0.000000 0.000000 -18.765800 12.568295 2.620304 0.043028 -2.014896 -0.220898 -2.615886 -55.953617 -42.245922 -2.320623 -0.000001 0.000006 -18.633892 52.770793 60.835450 -44.668409 0.000004 0.000003 -18.285099 -1.874271 39.759211 -24.568885
5.753300 7.931904 42.740005 -1.739797 1.628182 -3.614060 -0.204899 1.598097 7.917315 2.112382 -1.701437 1.319916 0.000000 -0.000000 3.404099 -0.276231 -1.822083 -0.112232 0.000000 -0.000000 7.928592 3.206402 5.813767 1.425526 0.000000 -0.000000 2.173907 -1.096035 -0.845573 -0.381603 2.833801 -1.396301 4.843298 -5.876688 5.964358 5.968273 4.363599 0.000010 0.000001 -54.454288 -15.634353 -64.191170 -0.000000 0.000006 -10.306903 -165.758241 -116.282195 -142.628393 -0.000000 0.000008 -12.404903 -75.196264 163.574752 -93.360749 -2.354800 -1.897200 5.063097 19.964279 8.844941 5.792789 -4.375794 0.000006 0.000004 42.434633 -15.398158 44.377119 -0.000002 0.000007 -10.004998 -18.941559 -26.692465 -36.940378 -0.000003 -0.000004 -13.174891 -11.914283 -6.748391 -16.614170 2.240600 0.386798 -2.614099 -1.318367 -9.600435 -0.528992 -0.000002 -0.000000 -18.592897 7.582421 29.792725 16.651668 -0.000001 -0.000002 -18.765799 12.540115 2.609825 -0.037176 -2.014897 -0.220903 -2.615894 -55.761910 -42.206775 -2.200736 -0.000001 0.000012 -18.633888 52.687335 60.750441 -44.704596 0.000004 0.000004 -18.285101 -1.956112 39.683389 -24.632881
